<mxfile host="Electron" agent="Mozilla/5.0 (Macintosh; Intel Mac OS X 10_15_7) AppleWebKit/537.36 (KHTML, like Gecko) draw.io/26.0.9 Chrome/128.0.6613.186 Electron/32.2.5 Safari/537.36" version="26.0.9">
  <diagram id="C5RBs43oDa-KdzZeNtuy" name="Page-1">
    <mxGraphModel dx="1078" dy="794" grid="1" gridSize="10" guides="1" tooltips="1" connect="1" arrows="1" fold="1" page="1" pageScale="1" pageWidth="827" pageHeight="1169" math="0" shadow="0">
      <root>
        <mxCell id="WIyWlLk6GJQsqaUBKTNV-0" />
        <mxCell id="WIyWlLk6GJQsqaUBKTNV-1" parent="WIyWlLk6GJQsqaUBKTNV-0" />
        <mxCell id="BvUQYlB5IQSUQrhlXHBE-0" value="START" style="strokeWidth=2;html=1;shape=mxgraph.flowchart.terminator;whiteSpace=wrap;" parent="WIyWlLk6GJQsqaUBKTNV-1" vertex="1">
          <mxGeometry x="190" y="80" width="100" height="30" as="geometry" />
        </mxCell>
        <mxCell id="BvUQYlB5IQSUQrhlXHBE-13" style="edgeStyle=orthogonalEdgeStyle;rounded=0;orthogonalLoop=1;jettySize=auto;html=1;exitX=0.5;exitY=1;exitDx=0;exitDy=0;exitPerimeter=0;" parent="WIyWlLk6GJQsqaUBKTNV-1" source="BvUQYlB5IQSUQrhlXHBE-0" edge="1">
          <mxGeometry relative="1" as="geometry">
            <mxPoint x="240" y="160" as="targetPoint" />
            <mxPoint x="240" y="120" as="sourcePoint" />
          </mxGeometry>
        </mxCell>
        <mxCell id="BvUQYlB5IQSUQrhlXHBE-15" style="edgeStyle=orthogonalEdgeStyle;rounded=0;orthogonalLoop=1;jettySize=auto;html=1;exitX=0.5;exitY=1;exitDx=0;exitDy=0;entryX=0.5;entryY=0;entryDx=0;entryDy=0;entryPerimeter=0;" parent="WIyWlLk6GJQsqaUBKTNV-1" edge="1" target="BvUQYlB5IQSUQrhlXHBE-5">
          <mxGeometry relative="1" as="geometry">
            <mxPoint x="240" y="454" as="sourcePoint" />
            <mxPoint x="240" y="484" as="targetPoint" />
          </mxGeometry>
        </mxCell>
        <mxCell id="BvUQYlB5IQSUQrhlXHBE-14" style="edgeStyle=orthogonalEdgeStyle;rounded=0;orthogonalLoop=1;jettySize=auto;html=1;exitX=0.5;exitY=1;exitDx=0;exitDy=0;" parent="WIyWlLk6GJQsqaUBKTNV-1" source="6RpTl2zcqgXJlMao5HfD-6" edge="1">
          <mxGeometry relative="1" as="geometry">
            <mxPoint x="240" y="260" as="sourcePoint" />
            <mxPoint x="240" y="270" as="targetPoint" />
          </mxGeometry>
        </mxCell>
        <mxCell id="yxN5-_ZM6rpQMeFfLnZS-7" style="edgeStyle=orthogonalEdgeStyle;rounded=0;orthogonalLoop=1;jettySize=auto;html=1;exitX=0;exitY=0.5;exitDx=0;exitDy=0;exitPerimeter=0;" edge="1" parent="WIyWlLk6GJQsqaUBKTNV-1" source="BvUQYlB5IQSUQrhlXHBE-5">
          <mxGeometry relative="1" as="geometry">
            <mxPoint x="240" y="480" as="targetPoint" />
            <Array as="points">
              <mxPoint x="170" y="520" />
              <mxPoint x="170" y="480" />
              <mxPoint x="240" y="480" />
            </Array>
          </mxGeometry>
        </mxCell>
        <mxCell id="yxN5-_ZM6rpQMeFfLnZS-13" style="edgeStyle=orthogonalEdgeStyle;rounded=0;orthogonalLoop=1;jettySize=auto;html=1;exitX=0.5;exitY=1;exitDx=0;exitDy=0;exitPerimeter=0;entryX=0.5;entryY=0;entryDx=0;entryDy=0;" edge="1" parent="WIyWlLk6GJQsqaUBKTNV-1" source="BvUQYlB5IQSUQrhlXHBE-5" target="yxN5-_ZM6rpQMeFfLnZS-6">
          <mxGeometry relative="1" as="geometry" />
        </mxCell>
        <mxCell id="BvUQYlB5IQSUQrhlXHBE-5" value="Tビット" style="strokeWidth=2;html=1;shape=mxgraph.flowchart.decision;whiteSpace=wrap;" parent="WIyWlLk6GJQsqaUBKTNV-1" vertex="1">
          <mxGeometry x="190" y="500" width="100" height="40" as="geometry" />
        </mxCell>
        <mxCell id="BvUQYlB5IQSUQrhlXHBE-20" style="edgeStyle=orthogonalEdgeStyle;rounded=0;orthogonalLoop=1;jettySize=auto;html=1;exitX=0.5;exitY=1;exitDx=0;exitDy=0;" parent="WIyWlLk6GJQsqaUBKTNV-1" source="yxN5-_ZM6rpQMeFfLnZS-6" edge="1">
          <mxGeometry relative="1" as="geometry">
            <mxPoint x="240" y="130" as="targetPoint" />
            <Array as="points">
              <mxPoint x="240" y="610" />
              <mxPoint x="160" y="610" />
              <mxPoint x="160" y="130" />
            </Array>
            <mxPoint x="240" y="590" as="sourcePoint" />
          </mxGeometry>
        </mxCell>
        <mxCell id="BvUQYlB5IQSUQrhlXHBE-23" value="=1" style="text;html=1;strokeColor=none;fillColor=none;align=center;verticalAlign=middle;whiteSpace=wrap;rounded=0;" parent="WIyWlLk6GJQsqaUBKTNV-1" vertex="1">
          <mxGeometry x="240" y="535" width="40" height="20" as="geometry" />
        </mxCell>
        <mxCell id="6RpTl2zcqgXJlMao5HfD-5" style="edgeStyle=orthogonalEdgeStyle;rounded=0;orthogonalLoop=1;jettySize=auto;html=1;exitX=0;exitY=0.5;exitDx=0;exitDy=0;exitPerimeter=0;" parent="WIyWlLk6GJQsqaUBKTNV-1" source="6RpTl2zcqgXJlMao5HfD-0" edge="1">
          <mxGeometry relative="1" as="geometry">
            <mxPoint x="240" y="140" as="targetPoint" />
            <Array as="points">
              <mxPoint x="170" y="180" />
              <mxPoint x="170" y="140" />
            </Array>
          </mxGeometry>
        </mxCell>
        <mxCell id="yxN5-_ZM6rpQMeFfLnZS-16" style="edgeStyle=orthogonalEdgeStyle;rounded=0;orthogonalLoop=1;jettySize=auto;html=1;exitX=0.5;exitY=1;exitDx=0;exitDy=0;exitPerimeter=0;entryX=0.5;entryY=0;entryDx=0;entryDy=0;" edge="1" parent="WIyWlLk6GJQsqaUBKTNV-1" source="6RpTl2zcqgXJlMao5HfD-0" target="6RpTl2zcqgXJlMao5HfD-6">
          <mxGeometry relative="1" as="geometry" />
        </mxCell>
        <mxCell id="6RpTl2zcqgXJlMao5HfD-0" value="Rビット" style="strokeWidth=2;html=1;shape=mxgraph.flowchart.decision;whiteSpace=wrap;" parent="WIyWlLk6GJQsqaUBKTNV-1" vertex="1">
          <mxGeometry x="190" y="160" width="100" height="40" as="geometry" />
        </mxCell>
        <mxCell id="6RpTl2zcqgXJlMao5HfD-1" value="=0" style="text;html=1;strokeColor=none;fillColor=none;align=center;verticalAlign=middle;whiteSpace=wrap;rounded=0;" parent="WIyWlLk6GJQsqaUBKTNV-1" vertex="1">
          <mxGeometry x="170" y="500" width="40" height="20" as="geometry" />
        </mxCell>
        <mxCell id="6RpTl2zcqgXJlMao5HfD-3" value="=0" style="text;html=1;strokeColor=none;fillColor=none;align=center;verticalAlign=middle;whiteSpace=wrap;rounded=0;" parent="WIyWlLk6GJQsqaUBKTNV-1" vertex="1">
          <mxGeometry x="170" y="160" width="40" height="20" as="geometry" />
        </mxCell>
        <mxCell id="yxN5-_ZM6rpQMeFfLnZS-15" value="" style="edgeStyle=orthogonalEdgeStyle;rounded=0;orthogonalLoop=1;jettySize=auto;html=1;" edge="1" parent="WIyWlLk6GJQsqaUBKTNV-1" source="6RpTl2zcqgXJlMao5HfD-4" target="6RpTl2zcqgXJlMao5HfD-6">
          <mxGeometry relative="1" as="geometry" />
        </mxCell>
        <mxCell id="6RpTl2zcqgXJlMao5HfD-4" value="=1" style="text;html=1;strokeColor=none;fillColor=none;align=center;verticalAlign=middle;whiteSpace=wrap;rounded=0;" parent="WIyWlLk6GJQsqaUBKTNV-1" vertex="1">
          <mxGeometry x="240" y="196" width="40" height="20" as="geometry" />
        </mxCell>
        <mxCell id="6RpTl2zcqgXJlMao5HfD-6" value="G0へSIOから入力" style="shape=parallelogram;perimeter=parallelogramPerimeter;whiteSpace=wrap;html=1;fixedSize=1;" parent="WIyWlLk6GJQsqaUBKTNV-1" vertex="1">
          <mxGeometry x="170" y="220" width="140" height="30" as="geometry" />
        </mxCell>
        <mxCell id="yxN5-_ZM6rpQMeFfLnZS-9" style="edgeStyle=orthogonalEdgeStyle;rounded=0;orthogonalLoop=1;jettySize=auto;html=1;exitX=0.5;exitY=1;exitDx=0;exitDy=0;entryX=0.5;entryY=0;entryDx=0;entryDy=0;" edge="1" parent="WIyWlLk6GJQsqaUBKTNV-1" source="yxN5-_ZM6rpQMeFfLnZS-0" target="yxN5-_ZM6rpQMeFfLnZS-2">
          <mxGeometry relative="1" as="geometry" />
        </mxCell>
        <mxCell id="yxN5-_ZM6rpQMeFfLnZS-0" value="G0 ← G0 + 3" style="rounded=1;whiteSpace=wrap;html=1;absoluteArcSize=1;arcSize=14;strokeWidth=2;" vertex="1" parent="WIyWlLk6GJQsqaUBKTNV-1">
          <mxGeometry x="190" y="270" width="100" height="30" as="geometry" />
        </mxCell>
        <mxCell id="yxN5-_ZM6rpQMeFfLnZS-11" style="edgeStyle=orthogonalEdgeStyle;rounded=0;orthogonalLoop=1;jettySize=auto;html=1;exitX=0.5;exitY=1;exitDx=0;exitDy=0;exitPerimeter=0;entryX=0.5;entryY=0;entryDx=0;entryDy=0;" edge="1" parent="WIyWlLk6GJQsqaUBKTNV-1" source="yxN5-_ZM6rpQMeFfLnZS-1" target="yxN5-_ZM6rpQMeFfLnZS-4">
          <mxGeometry relative="1" as="geometry" />
        </mxCell>
        <mxCell id="yxN5-_ZM6rpQMeFfLnZS-1" value="Cフラグ" style="strokeWidth=2;html=1;shape=mxgraph.flowchart.decision;whiteSpace=wrap;" vertex="1" parent="WIyWlLk6GJQsqaUBKTNV-1">
          <mxGeometry x="190" y="370" width="100" height="40" as="geometry" />
        </mxCell>
        <mxCell id="yxN5-_ZM6rpQMeFfLnZS-2" value="G0 - (&#39;z&#39;+1)" style="rounded=1;whiteSpace=wrap;html=1;absoluteArcSize=1;arcSize=14;strokeWidth=2;" vertex="1" parent="WIyWlLk6GJQsqaUBKTNV-1">
          <mxGeometry x="190" y="320" width="100" height="30" as="geometry" />
        </mxCell>
        <mxCell id="yxN5-_ZM6rpQMeFfLnZS-12" style="edgeStyle=orthogonalEdgeStyle;rounded=0;orthogonalLoop=1;jettySize=auto;html=1;exitX=0.25;exitY=1;exitDx=0;exitDy=0;" edge="1" parent="WIyWlLk6GJQsqaUBKTNV-1" source="yxN5-_ZM6rpQMeFfLnZS-3">
          <mxGeometry relative="1" as="geometry">
            <mxPoint x="240" y="470" as="targetPoint" />
            <Array as="points">
              <mxPoint x="310" y="391" />
              <mxPoint x="310" y="470" />
            </Array>
          </mxGeometry>
        </mxCell>
        <mxCell id="yxN5-_ZM6rpQMeFfLnZS-3" value="=1" style="text;html=1;strokeColor=none;fillColor=none;align=center;verticalAlign=middle;whiteSpace=wrap;rounded=0;" vertex="1" parent="WIyWlLk6GJQsqaUBKTNV-1">
          <mxGeometry x="280" y="371" width="40" height="20" as="geometry" />
        </mxCell>
        <mxCell id="yxN5-_ZM6rpQMeFfLnZS-4" value="G0 ← G0 - 26" style="rounded=1;whiteSpace=wrap;html=1;absoluteArcSize=1;arcSize=14;strokeWidth=2;" vertex="1" parent="WIyWlLk6GJQsqaUBKTNV-1">
          <mxGeometry x="190" y="430" width="100" height="30" as="geometry" />
        </mxCell>
        <mxCell id="yxN5-_ZM6rpQMeFfLnZS-6" value="G0をSIOへ出力" style="shape=parallelogram;perimeter=parallelogramPerimeter;whiteSpace=wrap;html=1;fixedSize=1;" vertex="1" parent="WIyWlLk6GJQsqaUBKTNV-1">
          <mxGeometry x="170" y="560" width="140" height="30" as="geometry" />
        </mxCell>
        <mxCell id="yxN5-_ZM6rpQMeFfLnZS-10" style="edgeStyle=orthogonalEdgeStyle;rounded=0;orthogonalLoop=1;jettySize=auto;html=1;exitX=0.5;exitY=1;exitDx=0;exitDy=0;entryX=0.5;entryY=0;entryDx=0;entryDy=0;entryPerimeter=0;" edge="1" parent="WIyWlLk6GJQsqaUBKTNV-1" source="yxN5-_ZM6rpQMeFfLnZS-2" target="yxN5-_ZM6rpQMeFfLnZS-1">
          <mxGeometry relative="1" as="geometry" />
        </mxCell>
        <mxCell id="yxN5-_ZM6rpQMeFfLnZS-14" value="=0" style="text;html=1;strokeColor=none;fillColor=none;align=center;verticalAlign=middle;whiteSpace=wrap;rounded=0;" vertex="1" parent="WIyWlLk6GJQsqaUBKTNV-1">
          <mxGeometry x="240" y="406" width="40" height="20" as="geometry" />
        </mxCell>
      </root>
    </mxGraphModel>
  </diagram>
</mxfile>
